<svg viewBox="0 0 37 37" fill="#2a4c94" xmlns="http://www.w3.org/2000/svg">
  <path
    d="M18.9464 19.3245C13.7211 19.3245 9.46973 15.0731 9.46973 9.84779C9.46973 4.62246 13.7211 0.371094 18.9464 0.371094C24.1718 0.371094 28.4231 4.62246 28.4231 9.84779C28.4231 15.0731 24.1718 19.3245 18.9464 19.3245ZM18.9464 2.76652C15.0415 2.76652 11.8651 5.94341 11.8651 9.84779C11.8651 13.7522 15.0415 16.9291 18.9464 16.9291C22.8513 16.9291 26.0277 13.7522 26.0277 9.84779C26.0277 5.94341 22.8513 2.76652 18.9464 2.76652Z"
  />
  <path
    d="M1.80255 36.2539C1.72055 36.2539 1.63705 36.2454 1.55355 36.2279C0.906075 36.0904 0.493088 35.4549 0.629584 34.8079C0.662083 34.6569 3.99298 19.7334 18.751 19.7334C33.5105 19.7334 36.8389 34.6574 36.8714 34.8079C37.0079 35.4549 36.5944 36.0909 35.9474 36.2279C35.3015 36.3639 34.6655 35.9514 34.528 35.3054C34.4105 34.7584 31.5436 22.1288 18.751 22.1288C5.91191 22.1288 3.00101 35.1724 2.97351 35.3039C2.85401 35.8674 2.35653 36.2539 1.80255 36.2539Z"
  />
  <path
    d="M26.4814 12.7603C26.2799 12.7603 26.0754 12.7093 25.8879 12.6023C22.3716 10.5928 20.2511 8.72188 19.1427 7.58392C18.0137 8.72938 15.8068 10.5668 11.9214 12.4473C11.3254 12.7343 10.6094 12.4858 10.322 11.8908C10.034 11.2953 10.283 10.5788 10.8784 10.2908C16.4143 7.61192 18.1117 5.138 18.1272 5.1135C18.3417 4.77951 18.7082 4.57351 19.1052 4.56401C19.4892 4.55202 19.8781 4.74151 20.1091 5.065C20.1241 5.086 22.0096 7.62692 27.0764 10.5223C27.6509 10.8508 27.8504 11.5823 27.5224 12.1563C27.3014 12.5433 26.8969 12.7603 26.4814 12.7603Z"
  />
</svg>
