<svg viewBox="0 0 38 37" fill="#2a4c94" xmlns="http://www.w3.org/2000/svg">
  <path
    d="M19.3392 19.7176C14.005 19.7176 9.66504 15.3776 9.66504 10.0433C9.66504 4.70911 14.005 0.369141 19.3392 0.369141C24.6735 0.369141 29.0135 4.70911 29.0135 10.0433C29.0135 15.3776 24.6735 19.7176 19.3392 19.7176ZM19.3392 2.81449C15.353 2.81449 12.1104 6.0576 12.1104 10.0433C12.1104 14.0291 15.353 17.2722 19.3392 17.2722C23.3255 17.2722 26.5681 14.0291 26.5681 10.0433C26.5681 6.0576 23.3255 2.81449 19.3392 2.81449Z"
  />
  <path
    d="M36.4402 36.9995C35.8752 36.9995 35.3668 36.6055 35.2453 36.0308C35.1234 35.4653 32.1952 22.5801 19.1395 22.5801C6.07573 22.5801 3.15009 35.4826 3.03219 36.0318C2.89029 36.6913 2.24616 37.1149 1.58111 36.9715C0.921663 36.8306 0.500579 36.1829 0.639919 35.5235C0.673096 35.3693 4.07341 20.1348 19.1395 20.1348C34.2057 20.1348 37.6044 35.3698 37.6376 35.5235C37.777 36.1839 37.3549 36.8332 36.6944 36.973C36.6092 36.9909 36.5239 36.9995 36.4402 36.9995Z"
  />
  <path
    d="M27.0304 13.0168C26.8247 13.0168 26.6159 12.9647 26.4246 12.8555C22.8349 10.8042 20.6708 8.89424 19.5392 7.73256C18.3862 8.9019 16.1338 10.7776 12.1674 12.6973C11.559 12.9913 10.8281 12.7366 10.5346 12.1292C10.2401 11.5213 10.4948 10.7899 11.1027 10.4959C16.7498 7.76319 18.4918 5.22699 18.5087 5.20147C18.7317 4.86766 19.1079 4.66044 19.5091 4.65431C19.8914 4.65227 20.292 4.835 20.5258 5.16114C20.5411 5.18258 22.4659 7.77646 27.6378 10.7322C28.2242 11.0675 28.4279 11.8143 28.0931 12.4002C27.8675 12.7953 27.4545 13.0168 27.0304 13.0168Z"
  />
  <path
    d="M31.7695 26.8342C31.1095 26.8342 30.566 26.3079 30.5476 25.6439C30.3883 19.7242 28.5264 4.13953 21.9136 3.13301C21.2465 3.03195 20.7871 2.40824 20.8892 1.74063C20.9908 1.07251 21.6145 0.612125 22.2816 0.715737C26.596 1.37212 29.7085 5.84837 31.5322 14.0199C32.826 19.8176 32.9863 25.3463 32.9924 25.5791C33.0103 26.2538 32.4779 26.8153 31.8027 26.8337C31.7914 26.8342 31.7802 26.8342 31.7695 26.8342Z"
  />
  <path
    d="M6.70133 26.8336C6.67581 26.8336 6.65029 26.8325 6.62477 26.831C5.95052 26.7892 5.43808 26.2093 5.47993 25.5356C5.49473 25.3029 5.84997 19.7757 7.3424 13.9806C9.44067 5.83195 12.6828 1.36897 16.9783 0.715146C17.6429 0.614086 18.2691 1.07192 18.3707 1.74004C18.4723 2.40765 18.0134 3.03085 17.3458 3.13242C10.7044 4.14353 8.29022 19.7563 7.92069 25.6867C7.88036 26.3349 7.34189 26.8336 6.70133 26.8336Z"
  />
</svg>
